#!OML:ASF H:\ManfredETheater\Project 1\Capture day 1\Session 1\subject.ASF
:FULLY-SPECIFIED
:DEGREES
140
root 2.22235 15.762 -16.2586 -177.635 -33.4103 181.556
lowerback 17.907 2.24975 -1.62469
upperback 1.51872 2.34761 -0.961307
thorax -8.42924 1.07722 -0.683094
lowerneck -6.57701 -10.2182 -11.5696
upperneck 2.29562 -13.442 12.9834
head 3.43172 -6.48776 4.96602
rclavicle 7.65321e-014 -1.39149e-014
rhumerus -13.621 20.4687 -69.1252
rradius 91.405
rwrist 9.69241
rhand -24.7235 5.44119
rfingers 7.12502
rthumb 1.77864 -24.5311
lclavicle 7.65321e-014 -1.39149e-014
lhumerus -32.2778 -16.564 103.14
lradius 77.3362
lwrist 18.0855
lhand -24.8355 -14.3802
lfingers 7.12502
lthumb 1.67045 15.593
rfemur -35.4006 -16.8403 17.2301
rtibia 86.9166
rfoot -11.3585 -2.88587
rtoes -33.643
lfemur -38.8336 -5.08709 -14.5017
ltibia 72.9556
lfoot -33.6543 -10.4033
ltoes -1.61277
141
root 2.20824 15.7966 -16.5504 -176.616 -34.1648 181.133
lowerback 17.9672 1.93842 -1.69342
upperback 1.3282 1.92418 -1.04881
thorax -8.66788 0.880927 -0.640333
lowerneck -7.19244 -10.2791 -11.6689
upperneck 2.1253 -13.4483 13.0545
head 3.49391 -6.4739 4.97493
rclavicle 3.6477e-014 -6.75868e-015
rhumerus -15.4346 21.2847 -72.064
rradius 88.35
rwrist 10.7002
rhand -24.2604 5.8878
rfingers 7.12502
rthumb 2.22584 -24.0803
lclavicle 3.6477e-014 -6.75868e-015
lhumerus -31.0403 -19.8393 103.781
lradius 79.3742
lwrist 17.7122
lhand -23.8446 -14.764
lfingers 7.12502
lthumb 2.62741 15.1996
rfemur -36.983 -17.9591 17.0317
rtibia 87.8055
rfoot -10.7315 -2.64874
rtoes -32.4191
lfemur -38.7693 -5.28686 -14.3042
ltibia 72.8764
lfoot -33.591 -10.7386
ltoes -2.89695
142
root 2.1953 15.8323 -16.8394 -175.621 -34.8025 180.712
lowerback 18.0819 1.67544 -1.75523
upperback 1.17006 1.56239 -1.11566
thorax -8.90261 0.713232 -0.593616
lowerneck -7.84858 -10.3609 -11.747
upperneck 1.94215 -13.481 13.1297
head 3.56064 -6.47235 4.97772
rclavicle 8.23962e-014 -2.10712e-014
rhumerus -17.1555 21.4489 -74.793
rradius 85.1911
rwrist 11.346
rhand -24.2535 6.19711
rfingers 7.12502
rthumb 2.23256 -23.771
lclavicle 8.23962e-014 -2.10712e-014
lhumerus -29.8337 -23.0578 104.132
lradius 81.528
lwrist 16.7644
lhand -22.9319 -15.2251
lfingers 7.12502
lthumb 3.50886 14.7258
rfemur -38.601 -18.9432 16.9137
rtibia 88.4302
rfoot -10.6571 -3.20723
rtoes -31.7223
lfemur -38.7585 -5.47344 -14.0836
ltibia 72.9023
lfoot -33.2763 -11.0573
ltoes -4.49199
143
root 2.18303 15.869 -17.1272 -174.705 -35.2838 180.329
lowerback 18.2681 1.47796 -1.81479
upperback 1.05476 1.28508 -1.14585
thorax -9.13174 0.585309 -0.528886
lowerneck -8.52787 -10.4611 -11.8196
upperneck 1.73043 -13.5354 13.2075
head 3.62462 -6.48191 4.97783
rclavicle -5.53615e-014 1.19271e-014
rhumerus -18.7533 20.9755 -77.2515
rradius 82.0354
rwrist 11.4961
rhand -24.6013 6.28379
rfingers 7.12502
rthumb 1.89667 -23.6875
lclavicle -5.53615e-014 1.19271e-014
lhumerus -28.5895 -26.1283 104.201
lradius 83.7432
lwrist 15.3974
lhand -22.169 -15.7819
lfingers 7.12502
lthumb 4.24559 14.1556
rfemur -40.215 -19.7261 16.886
rtibia 88.788
rfoot -10.9641 -4.39458
rtoes -31.3364
lfemur -38.7333 -5.62508 -13.8143
ltibia 73.0142
lfoot -32.7617 -11.3657
ltoes -6.37375
144
root 2.17103 15.9055 -17.4134 -173.854 -35.5996 179.99
lowerback 18.5025 1.34593 -1.87812
upperback 0.978354 1.09321 -1.13479
thorax -9.34655 0.498333 -0.437812
lowerneck -9.22804 -10.5744 -11.9015
upperneck 1.4838 -13.6022 13.2808
head 3.6827 -6.4985 4.97651
rclavicle 8.74653e-015 -2.94201e-014
rhumerus -20.1874 19.9117 -79.3841
rradius 78.9704
rwrist 11.0888
rhand -25.15 6.08087
rfingers 7.12502
rthumb 1.36673 -23.8945
lclavicle 8.74653e-015 -2.94201e-014
lhumerus -27.2311 -28.9841 103.993
lradius 85.9816
lwrist 13.8283
lhand -21.6192 -16.39
lfingers 7.12502
lthumb 4.77646 13.5361
rfemur -41.8651 -20.2908 16.9302
rtibia 88.8998
rfoot -11.4614 -5.9675
rtoes -30.9242
lfemur -38.6973 -5.74603 -13.4983
ltibia 73.1891
lfoot -32.0912 -11.6481
ltoes -8.55491
145
root 2.15848 15.9422 -17.7004 -173.117 -35.7557 179.713
lowerback 18.8063 1.2757 -1.95142
upperback 0.942955 0.980903 -1.07412
thorax -9.55631 0.449783 -0.307073
lowerneck -9.92125 -10.6902 -11.9984
upperneck 1.19383 -13.6674 13.3438
head 3.72592 -6.51678 4.97586
rclavicle -3.77691e-015 -1.86858e-014
rhumerus -21.4556 18.2989 -81.1708
rradius 76.0664
rwrist 10.176
rhand -25.7448 5.62436
rfingers 7.12502
rthumb 0.792188 -24.3539
lclavicle -3.77691e-015 -1.86858e-014
lhumerus -25.738 -31.5856 103.515
lradius 88.2558
lwrist 12.3032
lhand -21.3451 -16.9684
lfingers 7.12502
lthumb 5.04116 12.9516
rfemur -43.4917 -20.63 17.0254
rtibia 88.7677
rfoot -12.0222 -7.67455
rtoes -30.334
lfemur -38.5698 -5.83421 -13.1217
ltibia 73.38
lfoot -31.3258 -11.9638
ltoes -10.8539
146
root 2.1448 15.9778 -17.9883 -172.468 -35.7589 179.482
lowerback 19.1484 1.2575 -2.05274
upperback 0.945155 0.932566 -0.9659
thorax -9.74757 0.433113 -0.124447
lowerneck -10.599 -10.7945 -12.1063
upperneck 0.853694 -13.7125 13.383
head 3.74696 -6.52847 4.97395
rclavicle 1.98785e-016 -3.83654e-014
rhumerus -22.5456 16.2262 -82.5981
rradius 73.3705
rwrist 8.86814
rhand -26.3471 4.94636
rfingers 7.12502
rthumb 0.210513 -25.0333
lclavicle 1.98785e-016 -3.83654e-014
lhumerus -24.0571 -33.8748 102.763
lradius 90.5715
lwrist 11.0088
lhand -21.2734 -17.4601
lfingers 7.12502
lthumb 5.11034 12.4583
rfemur -45.1191 -20.7612 17.136
rtibia 88.4169
rfoot -12.5473 -9.25059
rtoes -29.5071
lfemur -38.3445 -5.89964 -12.7009
ltibia 73.546
lfoot -30.5167 -12.3344
ltoes -13.1397
